# xmcd
#
# Track frame offsets:
#	150
#	20758
#	37450
#	60918
#	89843
#	106930
#	126543
#	145608
#	163225
#	183623
#	214805
#	251070
#	283938
#	306830
#	328143
#
# Disc length: 4620
#
# Revision: 1
# Processed by: cddbd v1.5.1PL0 Copyright (c) Steve Scherf et al.
# Submitted via: ExactAudioCopy v0.90b4
# Normalized: r0:DSETVAR1
#
DISCID=f4120a0f
DTITLE=Various Artist - UK SOUL CUTS OF THE 90'S
DYEAR=1999
DGENRE=Soul
TTITLE0=Mark Morrison - Return Of The Mack (C&J Street Mix)
TTITLE1=Akin - Keep That Dream
TTITLE2=Cleopatra - Cleopatra's Theme (Brooklyn Funk R&B Remix)
TTITLE3=Noora - Need You II (Blacksmith Club Rub)
TTITLE4=Peace By Piece - Nobody's Business (Cutfather and Joe Radio Mix)
TTITLE5=Louchie Lou and Michie One - Good Sweet Lovin' (Extended Ver.)
TTITLE6=Morcheebra - Friction
TTITLE7=The Family Stand - Ghetto Heaven (Soul II Soul Remix Edit.)
TTITLE8=Charlene Smith - Feel The Rhythm (D-Influence Vocal Mix)
TTITLE9=Ultra Nate - Incredibly You
TTITLE10=Repercussions - Promise Me Nothing (Masters At Work Mix)
TTITLE11=Inner Shade - Mood To Mood
TTITLE12=Sybil - Why (Femi Fem Vocal Remix)
TTITLE13=D-Influence - Midnite
TTITLE14=Shola Ama - You Might Need Somebody (Mousset's Soul Train With Rap)
EXTD=
EXTT0=
EXTT1=
EXTT2=
EXTT3=
EXTT4=
EXTT5=
EXTT6=
EXTT7=
EXTT8=
EXTT9=
EXTT10=
EXTT11=
EXTT12=
EXTT13=
EXTT14=
PLAYORDER=
